<svg xmlns="http://www.w3.org/2000/svg" width="20.451" height="18.178" viewBox="0 0 20.451 18.178">
  <path id="id-card-clip-solid" d="M9.089,0h2.272A1.135,1.135,0,0,1,12.5,1.136V3.408a1.135,1.135,0,0,1-1.136,1.136H9.089A1.135,1.135,0,0,1,7.953,3.408V1.136A1.135,1.135,0,0,1,9.089,0ZM2.272,2.272H6.817v1.7a1.7,1.7,0,0,0,1.7,1.7H11.93a1.7,1.7,0,0,0,1.7-1.7v-1.7h4.545a2.274,2.274,0,0,1,2.272,2.272V15.906a2.274,2.274,0,0,1-2.272,2.272H2.272A2.274,2.274,0,0,1,0,15.906V4.545A2.274,2.274,0,0,1,2.272,2.272ZM6.249,15.526a.38.38,0,0,0,.38.38h7.2a.38.38,0,0,0,.38-.38,1.892,1.892,0,0,0-1.892-1.892H8.148a1.892,1.892,0,0,0-1.892,1.892ZM10.225,12.5a2.272,2.272,0,1,0-2.272-2.272A2.272,2.272,0,0,0,10.225,12.5Z" fill="#1f83ff"/>
</svg>
